<svg width="150" height="150" viewBox="0 0 150 150" fill="none" xmlns="http://www.w3.org/2000/svg">
<path d="M66.0007 0.447818C66.0007 0.671785 66.2259 0.895752 66.4511 0.895752C66.7213 0.895752 66.9014 0.671785 66.9014 0.447818C66.9014 0.179057 66.7213 -0.000116736 66.4511 -0.000116736C66.2259 -0.000116736 66.0007 0.179057 66.0007 0.447818Z" fill="black"/>
<path d="M67.1266 1.38861C22.8595 5.95754 -7.67258 47.9738 1.6942 91.3338C8.31399 122.107 34.0726 145.534 65.7756 149.655C71.4047 150.372 83.8787 149.924 89.5078 148.759C109.277 144.728 126.389 133.35 137.422 116.866C152.373 94.5589 154.13 65.8464 141.971 41.8371C136.252 30.5491 125.264 18.6789 114.546 12.139C100.135 3.44911 83.6085 -0.313541 67.1266 1.38861ZM89.4177 3.04597C105.044 6.40547 118.058 13.5276 128.596 24.4572C148.816 45.4205 154.76 76.0145 143.862 103.204C130.082 137.65 91.5342 156.732 55.6432 146.922C28.0833 139.397 7.6385 117.493 1.96439 89.4525C1.10877 85.1971 0.928641 83.047 0.973674 75.253C0.973674 67.4141 1.10877 65.3984 1.96439 61.367C5.47693 45.2414 12.547 32.6992 24.3906 21.5457C35.0183 11.5567 48.6182 4.97208 63.7491 2.46365C69.5133 1.52299 83.8336 1.83654 89.4177 3.04597Z" fill="black"/>
<path d="M70.7292 5.86791C70.3689 7.48048 70.0087 7.97321 68.7027 8.60031C67.8471 9.00346 67.4418 9.3618 67.8471 9.4066C68.8829 9.4066 70.3689 11.1983 71.1345 13.214C71.7199 14.8266 71.81 14.8714 71.81 13.7964C71.855 11.7806 72.8007 10.3473 74.4219 9.76494L75.9079 9.22742L74.4669 8.73469C73.1159 8.33155 72.4855 7.52527 71.5398 4.97205C71.1795 4.03138 71.0895 4.12097 70.7292 5.86791Z" fill="black"/>
<path d="M76.8086 4.92731C76.8086 5.15128 77.0338 5.37524 77.2589 5.37524C77.5291 5.37524 77.7092 5.15128 77.7092 4.92731C77.7092 4.65855 77.5291 4.47938 77.2589 4.47938C77.0338 4.47938 76.8086 4.65855 76.8086 4.92731Z" fill="black"/>
<path d="M76.8086 12.9901C76.8086 13.214 77.0338 13.438 77.2589 13.438C77.5291 13.438 77.7092 13.214 77.7092 12.9901C77.7092 12.7213 77.5291 12.5421 77.2589 12.5421C77.0338 12.5421 76.8086 12.7213 76.8086 12.9901Z" fill="black"/>
<path d="M60.8219 13.4381C60.6868 13.662 60.867 13.886 61.2723 13.886C61.6776 13.886 61.8577 13.662 61.7226 13.4381C61.5875 13.1693 61.3623 12.9901 61.2723 12.9901C61.1822 12.9901 60.957 13.1693 60.8219 13.4381Z" fill="black"/>
<path d="M85.0044 16.26C84.6892 17.1559 84.0587 18.007 83.6084 18.1414C82.8429 18.3653 82.8879 18.4997 84.0587 19.7091C84.7793 20.381 85.3647 21.3217 85.3647 21.68C85.3647 22.0832 85.5898 22.3967 85.815 22.3967C86.0852 22.3967 86.2653 21.9936 86.2653 21.5009C86.2653 20.9633 86.7607 20.0675 87.3461 19.4852L88.3819 18.4549L87.3911 17.9174C86.8057 17.6038 86.1753 16.7528 85.9951 16.0361L85.5898 14.6475L85.0044 16.26Z" fill="black"/>
<path d="M65.4153 17.7382C65.0551 18.0965 65.4604 18.8132 66.0458 18.8132C66.271 18.8132 66.4511 18.4997 66.4511 18.1413C66.4511 17.4694 65.9107 17.2455 65.4153 17.7382Z" fill="black"/>
<path d="M89.1926 19.2612C89.3727 19.5299 89.6879 19.6195 89.9131 19.4851C90.5435 19.082 90.4084 18.8132 89.5979 18.8132C89.2376 18.8132 89.0575 19.0372 89.1926 19.2612Z" fill="black"/>
<path d="M80.4111 20.8288C80.4111 21.1872 80.6363 21.5007 80.8615 21.5007C81.1317 21.5007 81.3118 21.1872 81.3118 20.8288C81.3118 20.4705 81.1317 20.1569 80.8615 20.1569C80.6363 20.1569 80.4111 20.4705 80.4111 20.8288Z" fill="black"/>
<path d="M56.7241 22.0831C55.1029 22.8446 54.9678 23.1581 52.3109 32.0272C48.7083 44.0319 47.1321 50.3029 45.6911 58.5001C43.7997 69.5641 44.16 72.4309 48.303 78.9707C51.6354 84.3012 52.491 86.5856 52.491 90.617C52.491 94.2005 51.4553 102.487 50.4645 107.056C50.1043 108.669 49.5189 111.67 49.1136 113.775C48.7083 115.881 47.8977 118.613 47.3123 119.912L46.2765 122.196L40.5574 122.152C35.4237 122.152 34.7482 122.241 34.2078 122.958C33.3522 124.123 33.4422 124.794 34.568 125.825C36.2342 127.392 42.3587 129.005 51.8155 130.394C55.5983 130.931 62.3982 130.618 63.8392 129.856C65.0101 129.229 64.875 127.392 63.569 126.541C62.3982 125.78 55.0579 123.182 54.0671 123.182C52.1758 123.182 52.0407 119.554 53.6168 110.595C54.2022 107.056 55.0128 101.905 55.3731 99.2174C56.5439 90.0347 56.679 89.766 63.6141 82.9574C70.3689 76.3727 71.4948 74.5362 72.2603 69.2058C73.161 63.2035 75.908 37.3128 75.908 35.118C75.908 31.5793 76.4484 34.2669 77.0788 40.6276C77.9344 49.4519 81.0867 67.9516 82.4827 72.0726C83.1132 73.9091 84.1039 76.2383 84.7343 77.3134C85.9953 79.4635 89.9581 83.2709 93.0654 85.3314C95.6773 87.0336 96.3528 87.8398 98.2441 91.5129C100.541 95.9474 105.179 114.94 105.179 119.912C105.179 122.062 104.954 123.719 104.639 124.167C104.324 124.57 102.657 125.422 100.901 126.049C95.6773 128.02 94.5965 128.647 94.4614 129.99C94.3713 130.842 94.5965 131.334 95.272 131.693C96.5329 132.365 103.378 132.365 107.071 131.693C115.266 130.214 124.543 125.914 124.543 123.63C124.543 121.838 121.571 121.301 115.266 121.883C111.078 122.286 110.898 122.196 109.142 118.344C107.656 115.074 107.161 113.014 104.954 101.233C102.792 89.8107 102.882 88.7357 106.215 81.9719C110.538 73.1924 110.628 70.8631 106.98 57.3355C101.216 35.7899 97.7488 24.7259 96.2627 23.3373C95.1819 22.3966 94.9117 22.307 91.7144 22.6206C87.076 23.0685 82.1675 24.3675 79.2404 25.9353C77.5742 26.8312 76.8086 27.0552 76.8086 26.652C76.8086 25.6666 74.5119 24.3228 70.9093 23.1133C66.6312 21.6799 58.8406 21.1424 56.7241 22.0831ZM67.3968 23.0237C70.9544 23.7852 75.0974 25.4874 74.7371 26.0249C73.8365 27.5031 56.5439 24.9051 56.5439 23.2925C56.5439 22.307 63.1637 22.1279 67.3968 23.0237ZM95.1819 23.6956C95.6322 23.9644 95.4521 24.1884 94.5064 24.5467C91.8945 25.577 79.6907 28.2646 77.7543 28.2198C76.5834 28.175 80.3662 26.0697 83.4734 25.0394C87.3462 23.7404 94.0561 22.979 95.1819 23.6956ZM59.2459 25.3082C63.1637 26.652 69.6935 27.5031 73.2961 27.1895L75.908 26.9656L75.6378 30.1459C75.1874 36.1482 75.0974 36.417 73.7464 36.1034C73.0709 35.969 70.7292 35.4763 68.4776 34.9836C65.6405 34.3117 62.7584 34.0429 58.9307 34.0429C55.9135 34.0429 53.3466 33.8638 53.1665 33.6398C52.8963 33.1471 55.3281 24.1884 55.7784 24.1884C55.8685 24.1884 57.4446 24.6811 59.2459 25.3082ZM97.9289 28.8021C98.6945 31.0418 99.3249 33.2366 99.3249 33.6398C99.3249 34.2221 98.5594 34.4013 95.1819 34.6252C90.4535 34.9388 84.3741 36.5514 80.4562 38.5223L77.8444 39.8213L77.304 34.6252C77.0338 31.7585 76.8536 29.4292 76.8987 29.3844C76.9887 29.3396 79.9609 28.7125 83.5635 28.0406C87.1661 27.3687 91.3992 26.3385 93.0203 25.8009C94.6415 25.2186 96.0826 24.7259 96.2627 24.6811C96.3978 24.6811 97.1633 26.5176 97.9289 28.8021ZM64.6498 36.9545C70.6842 38.2983 71.5848 38.4775 73.3411 38.5223H75.0073L74.7821 40.1796C74.2868 43.8079 73.161 53.4833 72.3054 61.5909C71.4047 70.236 70.9544 72.6549 69.6935 75.0289C69.3332 75.7456 66.226 79.1947 62.8035 82.6438C55.8685 89.7212 55.6883 90.0795 54.7426 97.8288C54.4724 100.024 53.842 104.055 53.3466 106.787C51.9956 114.313 51.5453 119.822 52.0407 122.152C52.536 124.302 53.6619 126.317 54.3824 126.317C54.6526 126.317 54.5175 125.78 54.0671 125.153C53.6619 124.526 53.3917 123.943 53.4817 123.854C53.5718 123.809 55.5983 124.391 58.0751 125.198C62.7134 126.765 64.965 128.244 63.7492 129.005C61.9028 130.17 51.2301 129.901 45.7361 128.602L44.16 128.199L45.8712 128.154C47.9427 128.109 47.6725 127.213 45.601 127.213C44.7904 127.213 42.764 126.676 41.0077 126.049C36.0991 124.302 35.919 124.257 36.7296 125.108C37.0899 125.511 38.9362 126.317 40.7825 126.989C42.9891 127.706 43.5746 128.02 42.4487 127.885C39.7918 127.482 35.2886 125.735 34.7932 124.884C34.4329 124.346 34.478 123.943 34.8833 123.451C35.3786 122.868 36.4594 122.734 40.5123 122.734H45.511L44.16 123.854C42.4037 125.287 43.6196 125.332 45.511 123.899C47.5825 122.286 48.7533 119.509 50.2394 112.342C52.3109 102.622 53.0764 96.9777 53.1215 91.3785C53.1665 86.6752 53.0764 86.0033 51.9506 83.674C51.3202 82.2855 49.9241 79.9114 48.8884 78.4332C47.8977 76.9102 46.7268 74.8497 46.3666 73.7747C44.9706 69.9225 45.601 61.3669 48.0778 50.6165C48.7983 47.3914 51.6804 36.7753 52.2658 35.118C52.446 34.5804 57.1744 35.2971 64.6498 36.9545ZM70.0087 36.0586C73.0709 36.8649 74.2418 37.8056 71.6299 37.4024C67.4869 36.7305 60.3717 35.2971 60.1465 35.0732C59.7413 34.6252 67.5769 35.4315 70.0087 36.0586ZM96.5779 35.6107C96.1726 35.969 90.6786 37.2681 87.031 37.8504C85.0946 38.1639 83.6536 38.2535 83.8787 38.0743C84.3741 37.6264 88.382 36.3274 90.8137 35.8795C92.9753 35.4315 96.8931 35.2524 96.5779 35.6107ZM100.721 38.2983C101.937 42.1505 105.449 54.7375 107.251 61.7701C109.637 71.0871 109.277 74.2674 104.864 83.0469C102.117 88.4669 102.027 89.8107 103.783 99.6653C105.9 111.401 106.89 115.388 108.602 118.971C110.043 122.062 113.465 125.869 114.096 125.198C114.276 125.018 113.961 124.57 113.42 124.212C112.835 123.809 112.384 123.361 112.384 123.137C112.384 122.555 123.057 122.644 123.417 123.227C124.363 124.705 117.923 128.109 110.583 129.99C104.639 131.513 97.6587 131.917 95.7673 130.842C94.7316 130.259 94.7316 130.259 95.5422 129.498C96.2627 128.826 98.019 128.064 103.603 126.004C104.504 125.69 104.504 125.69 103.648 126.945C103.108 127.84 103.018 128.154 103.468 128.02C104.729 127.616 105.855 124.391 105.99 120.494C106.125 117.045 105.9 115.612 103.378 105.488C99.7752 90.841 98.6044 88.4669 93.0203 84.3012C90.9038 82.7334 88.6522 80.9417 87.9767 80.3145C86.4456 78.8812 83.8787 74.0435 82.933 70.7735C81.8973 67.3692 78.4298 47.3466 78.0695 42.7776C77.9344 41.0307 77.9795 40.9859 80.1861 40.1796C81.4019 39.7317 84.4191 39.0598 86.8959 38.7014C91.4892 38.0295 96.713 36.6857 97.9739 35.8347C99.2348 35.0284 99.8653 35.6107 100.721 38.2983Z" fill="black"/>
<path d="M59.0207 39.4183C58.8856 39.6422 59.0657 39.8662 59.426 39.8662C59.8313 39.8662 60.1465 39.6422 60.1465 39.4183C60.1465 39.1495 59.9664 38.9703 59.7412 38.9703C59.471 38.9703 59.1558 39.1495 59.0207 39.4183Z" fill="black"/>
<path d="M59.9213 42.5536C60.1014 42.8224 60.4167 42.912 60.6418 42.7776C61.2723 42.3745 61.1372 42.1057 60.3266 42.1057C59.9664 42.1057 59.7862 42.3297 59.9213 42.5536Z" fill="black"/>
<path d="M57.4446 43.0018C57.4446 43.2257 57.6697 43.4497 57.8949 43.4497C58.1651 43.4497 58.3452 43.2257 58.3452 43.0018C58.3452 42.733 58.1651 42.5538 57.8949 42.5538C57.6697 42.5538 57.4446 42.733 57.4446 43.0018Z" fill="black"/>
<path d="M67.8921 43.0465C67.9822 43.3152 68.2524 43.4944 68.4775 43.4944C68.7027 43.4944 68.9729 43.3152 69.063 43.0465C69.153 42.7777 68.8828 42.5537 68.4775 42.5537C68.0722 42.5537 67.802 42.7777 67.8921 43.0465Z" fill="black"/>
<path d="M58.6154 45.1967C58.4352 45.4206 58.5253 45.7342 58.7505 45.8686C58.9756 46.0477 59.2908 45.9581 59.4259 45.7342C59.6061 45.5102 59.516 45.1967 59.2908 45.0623C59.0657 44.8831 58.7505 44.9727 58.6154 45.1967Z" fill="black"/>
<path d="M68.7026 45.6893C68.7026 45.9132 68.9278 46.1372 69.153 46.1372C69.4232 46.1372 69.6033 45.9132 69.6033 45.6893C69.6033 45.4205 69.4232 45.2413 69.153 45.2413C68.9278 45.2413 68.7026 45.4205 68.7026 45.6893Z" fill="black"/>
<path d="M67.1266 47.929C66.9915 48.153 67.1717 48.377 67.577 48.377C67.9822 48.377 68.1624 48.153 68.0273 47.929C67.8922 47.6603 67.667 47.4811 67.577 47.4811C67.4869 47.4811 67.2617 47.6603 67.1266 47.929Z" fill="black"/>
<path d="M57.8948 48.377C57.8948 48.601 58.1199 48.825 58.3451 48.825C58.6153 48.825 58.7954 48.601 58.7954 48.377C58.7954 48.1083 58.6153 47.9291 58.3451 47.9291C58.1199 47.9291 57.8948 48.1083 57.8948 48.377Z" fill="black"/>
<path d="M66.0007 56.4398C66.0007 56.6637 66.2259 56.8877 66.4511 56.8877C66.7213 56.8877 66.9014 56.6637 66.9014 56.4398C66.9014 56.171 66.7213 55.9918 66.4511 55.9918C66.2259 55.9918 66.0007 56.171 66.0007 56.4398Z" fill="black"/>
<path d="M67.3518 57.8282C67.3518 58.0522 67.577 58.1418 67.8021 58.0074C68.0723 57.873 68.2525 57.6491 68.2525 57.5147C68.2525 57.4251 68.0723 57.3355 67.8021 57.3355C67.577 57.3355 67.3518 57.5595 67.3518 57.8282Z" fill="black"/>
<path d="M64.7398 64.9952C64.8298 65.2639 65.1 65.4431 65.3252 65.4431C65.5504 65.4431 65.8205 65.2639 65.9106 64.9952C66.0007 64.7264 65.7305 64.5025 65.3252 64.5025C64.9199 64.5025 64.6497 64.7264 64.7398 64.9952Z" fill="black"/>
<path d="M51.1399 66.7423C51.1399 66.9662 51.4551 67.1902 51.8604 67.1902C52.2207 67.1902 52.4008 66.9662 52.2657 66.7423C52.1306 66.4735 51.8154 66.2943 51.5452 66.2943C51.32 66.2943 51.1399 66.4735 51.1399 66.7423Z" fill="black"/>
<path d="M63.0735 67.638C63.2086 67.862 63.4337 68.0859 63.5688 68.0859C63.6589 68.0859 63.749 67.862 63.749 67.638C63.749 67.3692 63.5238 67.1901 63.2536 67.1901C63.0285 67.1901 62.9384 67.3692 63.0735 67.638Z" fill="black"/>
<path d="M46.9519 67.9516C46.4565 68.3995 46.5916 71.6694 47.087 71.6694C47.3572 71.6694 47.5373 70.7736 47.5373 69.6537C47.5373 67.5932 47.4473 67.4141 46.9519 67.9516Z" fill="black"/>
<path d="M63.5239 70.3257C63.3888 70.5497 63.4789 70.7737 63.7041 70.7737C63.9743 70.7737 64.1994 70.5497 64.1994 70.3257C64.1994 70.057 64.1093 69.8778 64.0193 69.8778C63.8842 69.8778 63.659 70.057 63.5239 70.3257Z" fill="black"/>
<path d="M49.5639 70.7735C49.699 70.9975 50.0142 71.2214 50.2844 71.2214C50.5096 71.2214 50.6897 70.9975 50.6897 70.7735C50.6897 70.5047 50.3745 70.3256 49.9692 70.3256C49.6089 70.3256 49.4288 70.5047 49.5639 70.7735Z" fill="black"/>
<path d="M47.0872 73.282C47.0872 74.3122 50.1043 78.478 51.5454 79.4635C54.4275 81.4344 59.6513 82.6886 60.3718 81.524C60.5519 81.2552 60.0115 81.076 59.1109 81.076C58.3003 81.076 56.544 80.7625 55.2381 80.3593C52.5811 79.5978 49.4739 76.9102 48.4832 74.4466C47.9428 73.1924 47.0872 72.4757 47.0872 73.282Z" fill="black"/>
<path d="M57.4446 128.557L54.0671 128.826L57.985 128.916C60.1916 128.96 62.0379 128.826 62.173 128.557C62.3081 128.288 62.0829 128.154 61.6326 128.199C61.1823 128.244 59.2909 128.378 57.4446 128.557Z" fill="black"/>
<path d="M85.8149 42.5538C85.8149 42.7777 86.0401 43.0017 86.2653 43.0017C86.5355 43.0017 86.7156 42.7777 86.7156 42.5538C86.7156 42.285 86.5355 42.1058 86.2653 42.1058C86.0401 42.1058 85.8149 42.285 85.8149 42.5538Z" fill="black"/>
<path d="M95.497 42.5536C95.6771 42.8224 95.9924 42.912 96.2175 42.7776C96.848 42.3745 96.7129 42.1057 95.9023 42.1057C95.542 42.1057 95.3619 42.3297 95.497 42.5536Z" fill="black"/>
<path d="M87.6165 44.7935C87.6165 45.0175 87.8416 45.2415 88.0668 45.2415C88.337 45.2415 88.5171 45.0175 88.5171 44.7935C88.5171 44.5248 88.337 44.3456 88.0668 44.3456C87.8416 44.3456 87.6165 44.5248 87.6165 44.7935Z" fill="black"/>
<path d="M85.3647 46.3611C85.3647 46.7194 85.5899 47.033 85.8151 47.033C86.0853 47.033 86.2654 46.7194 86.2654 46.3611C86.2654 46.0027 86.0853 45.6892 85.8151 45.6892C85.5899 45.6892 85.3647 46.0027 85.3647 46.3611Z" fill="black"/>
<path d="M95.7222 47.3018C95.7222 47.6601 95.9473 47.8393 96.1725 47.7049C96.4427 47.5705 96.6228 47.257 96.6228 46.9882C96.6228 46.7642 96.4427 46.5851 96.1725 46.5851C95.9473 46.5851 95.7222 46.8986 95.7222 47.3018Z" fill="black"/>
<path d="M98.8745 51.9603C98.8745 52.1842 99.0997 52.4082 99.3248 52.4082C99.595 52.4082 99.7752 52.1842 99.7752 51.9603C99.7752 51.6915 99.595 51.5123 99.3248 51.5123C99.0997 51.5123 98.8745 51.6915 98.8745 51.9603Z" fill="black"/>
<path d="M100.496 63.4722C100 63.9649 100.225 64.5024 100.901 64.5024C101.261 64.5024 101.576 64.3233 101.576 64.0993C101.576 63.517 100.856 63.1138 100.496 63.4722Z" fill="black"/>
<path d="M100.226 67.1902C100.226 67.4142 100.451 67.6382 100.721 67.6382C100.946 67.6382 101.036 67.4142 100.901 67.1902C100.766 66.9215 100.541 66.7423 100.406 66.7423C100.316 66.7423 100.226 66.9215 100.226 67.1902Z" fill="black"/>
<path d="M86.2654 68.31C86.2654 68.6684 86.5806 68.9819 86.9409 68.9819C87.3011 68.9819 87.6164 68.6684 87.6164 68.31C87.6164 67.9517 87.3011 67.6381 86.9409 67.6381C86.5806 67.6381 86.2654 67.9517 86.2654 68.31Z" fill="black"/>
<path d="M101.351 69.8777C101.486 70.1017 101.802 70.3257 102.072 70.3257C102.297 70.3257 102.477 70.1017 102.477 69.8777C102.477 69.609 102.162 69.4298 101.757 69.4298C101.396 69.4298 101.216 69.609 101.351 69.8777Z" fill="black"/>
<path d="M84.7342 73.1029C85.4097 75.2081 86.3103 77.0447 86.6706 77.0447C86.8958 77.0447 86.6706 75.9248 86.1302 74.581C85.6348 73.2372 85.0494 72.1174 84.8243 72.1174C84.5991 72.1174 84.5541 72.5653 84.7342 73.1029Z" fill="black"/>
<path d="M87.6165 72.5655C87.6165 72.7895 87.8416 73.0134 88.1118 73.0134C88.337 73.0134 88.427 72.7895 88.2919 72.5655C88.1568 72.2967 87.9317 72.1176 87.7966 72.1176C87.7065 72.1176 87.6165 72.2967 87.6165 72.5655Z" fill="black"/>
<path d="M89.2377 74.3124C89.0575 74.5363 89.1476 74.8499 89.3728 74.9843C89.5979 75.1634 89.9132 75.0739 90.0483 74.8499C90.2284 74.6259 90.1383 74.3124 89.9132 74.178C89.688 73.9988 89.3728 74.0884 89.2377 74.3124Z" fill="black"/>
<path d="M87.166 78.2542C87.166 78.7469 91.6242 81.7033 93.4255 82.42C95.7672 83.3606 100.135 83.1815 102.387 82.0168C103.423 81.4793 104.278 80.8522 104.278 80.6282C104.278 80.4043 103.513 80.5834 102.567 81.0762C98.6944 83.0919 94.9567 82.6887 90.3633 79.7324C87.4812 77.851 87.166 77.7167 87.166 78.2542Z" fill="black"/>
<path d="M118.464 125.422C116.978 126.138 115.401 126.721 114.996 126.765C114.546 126.765 114.186 126.989 114.186 127.258C114.186 127.572 114.636 127.661 115.446 127.437C117.383 126.989 121.841 124.884 121.841 124.481C121.841 123.899 121.481 124.033 118.464 125.422Z" fill="black"/>
<path d="M106.08 129.05C104.954 129.229 102.387 129.408 100.361 129.408C97.8389 129.453 96.623 129.632 96.623 129.946C96.623 130.349 97.929 130.394 101.487 130.17C106.845 129.856 108.782 129.543 108.782 128.96C108.782 128.736 108.647 128.602 108.467 128.602C108.241 128.647 107.206 128.826 106.08 129.05Z" fill="black"/>
</svg>
