<svg width="86" height="239" viewBox="0 0 86 239" fill="none" xmlns="http://www.w3.org/2000/svg">
<path d="M106.352 230.807C107.388 230.128 106.136 229.63 99.1377 227.91C90.2391 225.737 80.6925 222.433 76.0272 219.989C69.1588 216.413 57.8843 207.993 55.2925 204.598C53.867 202.743 51.4047 197.537 51.4047 196.405C51.4047 195.998 52.355 195.229 53.651 194.595C55.8972 193.509 59.569 190.702 61.0377 188.982C62.8088 186.9 64.3639 182.735 64.3639 180.02C64.3639 174.995 62.0744 172.008 58.2299 172.008C52.571 172.008 49.8064 177.349 49.4608 188.756L49.3312 194.414L47.9057 194.821C46.9986 195.093 45.3139 195.093 43.0244 194.731C37.7976 193.961 32.7867 191.2 27.9486 186.492C19.8707 178.571 16.7173 170.469 16.7173 157.523C16.6741 144.441 20.7346 132.944 33.2187 111.035C38.9639 100.941 40.519 97.7727 43.0676 91.4356C46.5666 82.79 47.9489 77.9466 48.4673 72.6958C48.5969 71.4737 48.8993 71.2926 52.5278 69.9799C63.8887 65.8155 76.3727 54.635 85.0122 40.8292C89.3319 33.9036 97.1938 16.9292 97.1938 14.5301C97.1938 12.81 96.1139 13.5343 95.5091 15.6617C94.5588 18.9208 86.3081 35.9858 83.5435 40.286C77.0639 50.4706 68.986 58.8447 60.5625 64.186C56.8476 66.5398 51.5343 69.0746 49.6768 69.3462C48.6401 69.482 48.5969 69.3462 48.3377 66.5398C47.8625 60.5648 43.802 54.454 38.4023 51.6475C36.1993 50.5159 35.2057 50.2443 32.8731 50.2443C29.3741 50.2443 27.4302 50.7875 26.0047 52.1455C24.32 53.8203 23.6289 55.6761 23.6721 58.5278C23.7153 61.6059 24.9248 64.186 27.5166 66.5398C31.102 69.8894 38.3591 72.2432 43.7588 71.8358C45.3571 71.7453 46.7826 71.7905 46.869 71.9716C47.3442 72.7864 45.7459 79.8477 43.8452 85.0985C40.9078 93.4273 37.4952 100.534 31.7931 110.447C23.0673 125.611 17.8836 137.651 15.8965 147.338C15.551 148.968 15.335 153.132 15.3782 157.749C15.3782 164.131 15.551 166.123 16.3285 169.473C18.7044 179.476 26.2207 189.118 35.2057 193.735C39.4823 195.908 41.5125 196.405 46.3074 196.451C49.6336 196.451 50.1088 196.541 50.1088 197.266C50.1088 198.533 52.571 203.603 54.2989 205.821C55.9836 207.948 63.2408 213.878 68.6836 217.499C73.4353 220.668 78.9646 223.384 84.8826 225.375C91.8374 227.774 105.66 231.26 106.352 230.807ZM50.9727 189.57C50.9727 184.048 51.5775 180.517 52.9598 177.53C54.3853 174.497 56.1132 173.23 58.4459 173.547C62.3768 174.045 64.0183 178.345 62.3336 183.595C61.1673 187.171 54.2125 193.69 51.4911 193.735C51.1023 193.735 50.9727 192.603 50.9727 189.57ZM36.5016 69.4367C27.9918 67.264 22.8081 60.2027 25.9183 54.9066C27.3006 52.5076 28.6829 51.8286 32.3979 51.8286C35.1625 51.8286 35.9833 52.0097 37.884 53.1413C43.154 56.1741 46.7394 61.8775 46.8258 67.1735L46.869 69.9347L45.3571 70.2062C43.3268 70.5231 39.6551 70.2062 36.5016 69.4367Z" fill="black"/>
</svg>
