<svg width="134" height="106" viewBox="0 0 134 106" fill="none" xmlns="http://www.w3.org/2000/svg">
<path fill-rule="evenodd" clip-rule="evenodd" d="M132.322 0.903063C132.225 1.16786 131.794 2.59826 131.364 4.08216C129.959 8.93124 125.619 17.1535 122.713 20.4753L121.805 21.5124L118.394 18.1987C114.419 14.3374 112.284 13.2203 108.755 13.1545C101.392 13.0172 99.0852 20.3345 104.967 25.1676C108.39 27.9801 113.767 28.1183 118.384 25.5128C119.638 24.8053 120.802 24.2295 120.972 24.2327C121.635 24.245 122.375 27.1644 122.347 29.6494C122.281 35.3911 117.478 43.1998 110.525 48.8696C99.4378 57.91 86.8281 61.6812 58.7416 64.3574C42.8866 65.8683 30.4862 69.497 24.1739 74.4727C18.8356 78.6807 16.9279 82.9015 17.2698 89.7483L17.4745 93.8438L14.7733 94.4987C13.2877 94.8585 10.627 95.9501 8.86046 96.9239C5.71059 98.6605 0.0306704 103.266 0.0151932 104.095C-0.0028056 105.06 1.3088 104.392 4.05011 102.039C7.27275 99.2725 10.6185 97.309 13.9487 96.2287C17.3212 95.1349 18.0528 95.2779 18.9989 97.2153C21.288 101.902 24.9963 105.37 27.7742 105.422C29.7703 105.459 32.3387 103.499 32.3682 101.917C32.4361 98.2751 26.0808 93.7649 20.7405 93.6653C19.3679 93.6397 19.285 93.5529 19.0291 91.8725C18.8812 90.901 18.8735 88.5622 19.0118 86.6753C19.6357 78.1705 25.9744 72.9128 40.3224 68.9984C46.3597 67.3513 50.9976 66.5958 61.4339 65.5593C80.7456 63.641 92.5256 61.0226 100.996 56.7657C109.551 52.4673 115.004 47.9894 119.385 41.6655C123.643 35.5184 125.048 29.4619 123.283 24.8617L122.536 22.9149L124.068 21.2213C126.046 19.037 128.641 14.6802 130.707 10.0763C132.516 6.04315 133.98 1.35288 133.603 0.796741C133.252 0.28063 132.528 0.340753 132.322 0.903063ZM112.485 15.4201C114.132 16.1952 120.179 21.6673 120.165 22.3692C120.15 23.1079 116.184 25.2094 113.896 25.6914C110.836 26.3358 107.993 25.7635 105.961 24.0934C102 20.8392 102.316 16.1651 106.597 14.6918C107.959 14.2227 110.648 14.555 112.485 15.4201ZM26.3171 96.7365C28.526 97.8398 30.2665 99.5498 30.8116 101.152C31.2564 102.46 29.5527 103.905 27.6067 103.869C26.4735 103.848 25.7504 103.481 24.467 102.28C22.8291 100.746 20.0749 96.5282 20.0926 95.5807C20.107 94.8094 23.8516 95.5047 26.3171 96.7365Z" fill="black"/>
</svg>
