<svg width="360" height="182" viewBox="0 0 360 182" fill="none" xmlns="http://www.w3.org/2000/svg">
<path d="M373.584 181.357C372.769 182.105 373.201 182.317 368.458 178.557C360.268 172.07 356.696 167.067 345.59 146.652C336.491 129.981 333.77 125.635 329.43 120.962C325.351 116.631 321.206 113.865 315.078 111.381C310.618 109.603 308.519 109.084 304.596 108.951C298.107 108.669 292.162 109.519 288.742 111.217L286.02 112.557L286.736 115.149C288.3 120.902 288.107 132.755 286.396 135.651C285.095 137.916 280.331 140.191 277.758 139.762C272.47 138.965 269.681 135.387 270.588 130.619C271.884 123.978 276.977 115.592 281.521 112.672C282.419 112.115 283.145 111.291 283.103 110.798C283.102 109.604 278.459 103.299 275.815 100.853C272.884 98.1329 267.592 94.9491 263.832 93.6087C257.39 91.3177 243.658 90.4541 233.646 91.6306C227.213 92.4055 228.139 92.1782 204.287 99.6452C167.565 111.165 162.484 112.44 149.495 113.304C138.9 114.049 134.359 114.067 125.436 113.411C107.149 112.004 91.2664 107.061 78.0268 98.4811C69.118 92.7015 59.9093 82.3884 57.6384 75.5181L56.6818 72.6315L53.3609 71.3867C38.5884 65.8533 15.3579 46.7274 2.98706 29.984C-4.21838 20.2313 -14.0571 4.61689 -14.4163 2.32638C-14.5132 1.57202 -14.3562 0.879093 -13.9723 0.714076C-13.5404 0.528432 -12.7781 1.50846 -11.369 4.25742C-6.79832 13.0389 4.94149 29.7693 12.0487 37.5742C22.5621 49.2028 36.4838 60.5604 47.1757 66.2558C50.806 68.2205 55.623 70.3006 56.0549 70.1149C56.1988 70.0531 56.389 68.3793 56.3868 66.3902C56.5053 61.9043 57.1336 59.5305 59.4743 55.056C62.1777 49.9707 65.7261 46.0574 68.9892 44.6547C72.9241 42.9633 79.935 44.3277 82.9357 47.4728C85.6547 50.2273 87.0794 54.7321 86.4116 58.6013C85.4715 64.35 81.5406 69.6218 75.9064 72.7828C72.6917 74.5627 69.4412 74.9365 63.7546 74.1399C61.5253 73.8473 59.5843 73.8288 59.3309 74.1651C58.4133 75.4693 65.6465 85.5512 71.2008 90.669C76.5971 95.6841 85.2171 100.792 94.8233 104.623C110.626 110.964 130.627 113.056 153.402 110.885C163.332 109.915 171.766 107.711 203.701 97.6224C223.481 91.3943 226.909 90.3756 230.64 89.7956C238.361 88.5803 249.232 88.7404 258.486 90.1642C269.084 91.8061 278.124 98.1549 284.102 108.094L285.38 110.274L288.355 108.995C294.806 106.279 304.119 105.858 311.975 107.996C319.693 110.08 327.497 115.141 332.675 121.5C336.94 126.661 338.946 130.006 350.052 150.42C357.88 164.795 363.203 171.889 370.04 177.08C374.234 180.224 374.454 180.471 373.584 181.357ZM282.559 114.557C278.042 117.408 273.223 125.507 272.523 131.55C272.136 134.616 272.994 135.953 276.288 137.266C278.278 138.06 278.909 138.073 280.972 137.186C282.268 136.629 283.769 135.757 284.29 135.248C285.331 134.232 286.046 129.547 285.883 124.67C285.825 122.023 284.925 114.904 284.52 113.828C284.464 113.567 283.532 113.911 282.559 114.557ZM81.2911 48.8052C78.2976 45.9413 72.3298 45.1519 68.8891 47.1995C63.2895 50.5731 58.3274 59.927 58.452 67.0945L58.5318 70.9834L60.3499 71.5097C64.034 72.5415 70.1588 72.638 72.9218 71.7914C78.7838 69.9539 84.1602 63.1511 84.5034 57.204C84.6236 54.3095 83.3096 50.7236 81.2911 48.8052Z" fill="black"/>
</svg>
