<svg width="61" height="228" viewBox="0 0 61 228" fill="none" xmlns="http://www.w3.org/2000/svg">
<path d="M-51.5523 0.699218C-52.4271 1.59008 -51.1257 1.90123 -44.0527 2.52228C-35.0613 3.29672 -25.2347 5.1521 -20.2788 6.9319C-12.9869 9.52833 -0.544572 16.4737 2.58623 19.6064C4.30607 21.3175 7.64739 26.378 7.85713 27.5691C7.93264 27.9979 7.15803 28.9693 6.0247 29.8566C4.05803 31.3818 1.03431 34.9597 -0.0644316 37.0198C-1.3879 39.5124 -2.11698 44.1599 -1.61359 47.0185C-0.682325 52.3069 2.08112 55.0622 5.79177 54.4088C11.2535 53.447 12.9319 47.3552 11.1512 35.2904L10.2275 29.313L11.5279 28.6419C12.3531 28.2019 13.9791 27.9155 16.256 27.9075C21.4434 27.8291 26.7915 29.8837 32.3337 34.0163C41.5984 40.9809 46.1438 48.973 48.5433 62.599C51.0096 76.3605 49.2215 89.1521 41.233 114.333C37.5587 125.934 36.6451 129.533 35.3598 136.637C33.5851 146.331 33.1487 151.664 33.6216 157.279C33.723 158.587 33.4647 158.829 30.2058 160.827C20.0125 167.142 10.0356 181.031 4.25589 197.031C1.37026 205.054 -3.07166 224.257 -2.627 226.782C-2.30818 228.592 -1.4001 227.647 -1.21072 225.305C-0.897548 221.713 3.90282 202.349 5.77413 197.353C10.1403 185.532 16.3848 175.345 23.5249 168.291C26.6742 165.183 31.3326 161.611 33.075 161.01C34.0505 160.691 34.1173 160.826 34.8877 163.736C36.4537 169.944 41.5055 175.686 47.2372 177.722C49.5733 178.539 50.5826 178.656 52.834 178.259C56.2111 177.665 57.9866 176.762 59.1108 175.091C60.4264 173.042 60.7495 170.971 60.1792 167.977C59.567 164.744 57.9214 162.234 54.9836 160.197C50.9022 157.281 43.4616 156.037 38.3255 157.384C36.7996 157.751 35.4154 157.945 35.2984 157.769C34.6888 156.993 34.9226 149.289 35.7839 143.439C37.0753 134.173 39.0518 126.113 42.7179 114.71C48.3292 97.2667 51.1007 83.7126 51.2231 73.1792C51.2547 71.4053 50.6913 66.9854 49.7938 62.1332C48.6108 55.4155 48.0749 53.3486 46.7036 49.9551C42.5564 39.8298 33.5148 30.9593 23.9869 27.6268C19.4566 26.0668 17.4048 25.8878 12.7685 26.6551C9.55814 27.2204 9.08274 27.2059 8.94851 26.4436C8.71359 25.1096 5.39745 20.1921 3.31864 18.1512C1.2983 16.1983 -6.80515 11.1905 -12.7296 8.30414C-17.9031 5.77673 -23.7432 3.85791 -29.8242 2.76746C-36.9814 1.42442 -50.9691 0.105313 -51.5523 0.699218ZM9.54092 34.6898C10.5645 40.5022 10.6352 44.3212 9.85474 47.7006C9.04099 51.135 7.6082 52.7627 5.29806 52.8256C1.41173 52.9697 -0.96963 48.7226 -0.316827 42.9096C0.146081 38.9476 5.65049 30.9049 8.26874 30.3947C8.64398 30.3286 8.9788 31.4977 9.54092 34.6898ZM45.7745 158.675C54.3907 159.516 60.7027 166.067 58.6824 172.17C57.7929 174.93 56.5846 175.88 52.999 176.511C50.3306 176.981 49.5049 176.93 47.4607 176.062C41.8121 173.765 37.2944 168.372 36.2294 162.812L35.676 159.913L37.0849 159.37C38.9857 158.692 42.5883 158.401 45.7745 158.675Z" fill="black"/>
</svg>
