<svg width="360" height="87" viewBox="0 0 360 87" fill="none" xmlns="http://www.w3.org/2000/svg">
<path d="M-3.94118 0.735871C-3.82392 0.852766 -1.18575 1.90482 1.86282 3.13222C15.6986 8.62628 29.1826 18.387 37.9179 29.2582C40.3216 32.356 40.3216 32.356 35.5729 32.882C31.1173 33.408 25.3133 36.5642 23.9649 39.1943C22.382 42.292 23.0855 45.156 26.1341 48.1952C31.4104 53.5139 39.1491 52.7541 42.3735 46.6756C43.7219 44.1624 43.8392 38.3176 42.608 35.9213C41.3182 33.5249 41.4941 33.2327 43.9564 33.2327C52.3986 33.2911 63.1858 38.6098 77.7251 50.0071C97.5408 65.5541 103.872 69.5286 111.787 71.5158C119.057 73.3276 127.499 72.2756 133.713 68.7687C137.934 66.3724 144.149 60.1185 146.259 56.1441C148.252 52.4619 148.956 47.4939 147.725 45.8573C146.259 43.987 144.676 45.156 142.39 49.8318C139.634 55.4427 137.407 57.8975 133.713 59.4756C129.551 61.2875 128.261 60.9952 128.026 58.1897C127.733 54.3907 130.371 50.2409 138.345 41.9413C142.273 37.85 145.497 34.2263 145.497 33.8756C145.497 32.8235 144.031 32.8235 140.866 33.934C135.472 35.7459 133.772 35.1614 134.593 31.7715C134.886 30.7194 135.824 29.9596 137.934 29.0829C140.807 27.8555 142.39 26.1605 141.686 25.05C140.983 23.9395 139.634 24.4655 137.289 26.8034C134.827 29.2582 133.01 29.7258 131.192 28.3815C130.489 27.8555 130.196 27.0372 130.371 25.9267C130.547 24.3487 130.899 24.1149 133.655 23.355C135.296 22.8875 136.703 22.303 136.703 22.0692C136.703 21.2509 134.241 21.4847 132.599 22.4199C131.134 23.2966 125.857 23.5888 124.157 22.9459C122.398 22.303 121.812 20.4327 122.985 19.1468C123.805 18.2701 124.509 18.0948 126.971 18.387C130.313 18.7377 132.189 17.9779 130.958 16.7505C130.43 16.2245 129.551 16.2245 127.206 16.692C123.629 17.4519 120.815 16.6336 119.701 14.5295C118.822 12.8345 120.405 10.2044 121.988 10.7304C123.923 11.3149 127.323 11.2564 128.026 10.555C128.906 9.67834 126.268 9.03541 123.336 9.3861C120.874 9.73678 117.532 8.10025 114.777 5.23633C110.966 1.2619 116.008 0.268291 124.861 3.19067C136.586 7.0482 148.897 15.0555 150.773 20.0235C151.36 21.6016 151.242 21.8939 149.601 23.1797C147.666 24.6993 147.373 26.2774 148.78 27.4464C149.601 28.0893 149.894 28.0308 150.832 26.8619C151.477 26.1021 151.946 24.7578 151.946 23.8811C151.946 22.5368 152.356 22.1277 154.467 21.3678C161.619 18.6792 167.892 19.0299 170.589 22.303C171.82 23.7642 170.472 26.219 168.478 26.219C165.958 26.219 164.492 28.2646 161.854 35.629C160.505 39.3112 158.922 42.9934 158.336 43.8117C157.339 45.2144 156.988 45.3313 154.232 45.0391C151.535 44.8053 151.242 44.8637 151.477 45.8573C151.711 47.1432 154.232 47.6108 155.991 46.734C157.691 45.7989 162.968 47.903 165.547 50.4747C167.599 52.5203 168.42 54.1569 170.413 59.7678C172.582 65.7295 177.272 68.7687 183.311 68.0674C187.004 67.6582 191.929 65.9048 198.202 62.8071C201.426 61.229 203.009 60.7614 204.358 60.9952C206.468 61.3459 207.934 60.5861 207.465 59.3587C207.172 58.5989 206.703 58.5989 204.651 59.0665C201.192 60.0016 200.957 59.6509 195.857 45.8573C194.333 41.7076 192.984 40.2464 190.639 40.2464C189.232 40.2464 188.705 39.8957 188.294 38.7267C187.415 36.4473 188.47 35.1614 192.222 34.0509C196.033 32.9404 198.905 33.1742 203.771 34.9861C206.644 36.0966 207.055 36.4473 207.055 37.85C207.055 39.9541 208.344 41.5907 209.751 41.2984C212.038 40.8893 211.217 37.85 208.344 36.2135C206.585 35.2199 209.517 30.661 214.09 27.271C222.766 20.8418 239.827 14.0619 243.813 15.4646C245.982 16.2245 246.041 16.9843 244.224 19.1468C241.82 22.0692 238.42 23.4719 234.492 23.355C231.619 23.2382 231.091 23.4135 231.091 24.2318C231.091 25.05 231.56 25.1669 234.55 24.8747C237.482 24.6409 238.244 24.7578 239.006 25.6345C240.296 27.0372 239.768 28.6153 237.54 29.9012C236.074 30.7779 235.078 30.8948 231.678 30.5441C228.219 30.1934 227.574 30.3103 227.574 31.0701C227.574 32.1806 229.86 32.7651 232.674 32.2975C234.433 32.0053 235.136 32.1806 235.957 33.1158C236.543 33.7003 236.837 34.6354 236.602 35.1614C235.84 37.1487 229.977 37.9669 227.105 36.5057C224.935 35.3952 222.766 35.1614 222.473 35.9213C222.356 36.3304 223.235 36.798 224.466 37.0318C227.691 37.6162 228.746 38.376 228.746 39.9541C228.746 41.4153 226.812 43.1687 225.17 43.1687C224.642 43.1687 223.118 42.1167 221.828 40.8308C219.483 38.4929 218.018 37.9669 217.314 39.1359C216.728 40.0126 218.721 41.9998 221.301 42.9934C223.646 43.9286 224.642 45.2144 224.642 47.2016C224.642 49.0135 222.415 49.2473 218.311 47.8445C214.793 46.6171 213.503 46.6756 213.503 47.9614C213.503 48.2537 216.728 51.8774 220.714 55.9687C228.394 63.8007 231.091 67.9505 231.091 71.8665C231.091 74.4966 230.036 74.9057 226.284 73.6783C222.18 72.3925 220.011 70.2299 217.08 64.4436C214.148 58.8327 212.507 57.6053 211.158 60.177C209.224 63.7423 212.389 71.3404 218.135 77.0683C229.215 87.998 243.227 89.2838 258.352 80.692C262.339 78.4126 269.491 73.2108 280.924 64.2098C292.59 55.0336 299.801 50.7669 307.598 48.5459C312.23 47.2016 317.272 46.5003 317.272 47.2016C317.272 47.4939 316.861 48.7213 316.334 49.9487C315.689 51.4683 315.454 53.3971 315.63 56.1441C315.806 59.534 316.099 60.3523 317.565 61.9304C320.027 64.4436 322.314 65.4957 325.479 65.4957C328.704 65.4957 331.225 64.3267 333.335 61.8719C338.846 55.3258 334.86 49.0135 323.838 46.8509L319.089 45.9158L320.965 43.3441C323.662 39.545 332.104 31.6546 337.791 27.5633C343.829 23.2966 352.447 18.6208 358.662 16.2829C361.241 15.3477 363 14.5879 362.59 14.5295C361.007 14.471 352.037 18.1532 347.054 20.9587C336.56 26.745 325.069 36.2135 320.496 42.8181L318.327 46.0327L314.399 46.4418C302.967 47.6108 294.056 52.6372 271.719 70.4637C255.773 83.1468 245.455 87.2966 234.55 85.2509C223.646 83.2637 212.331 72.5678 211.334 63.3916C211.1 61.6381 211.276 60.7614 211.92 60.177C213.269 59.1249 213.855 59.7094 216.435 64.6774C217.666 67.1322 219.366 69.8792 220.245 70.8144C222.884 73.5614 226.929 75.1395 230.564 74.8473C231.091 74.7888 231.678 74.1459 231.912 73.3861C232.85 69.5286 228.57 62.5149 220.304 54.2738C217.197 51.2345 214.676 48.429 214.676 48.0199C214.676 47.5523 215.614 47.6692 218.018 48.4875C223.646 50.4162 225.698 49.6564 225.053 45.9158C224.76 44.1039 224.935 43.9286 226.577 43.4025C228.746 42.8181 230.095 40.5386 229.332 39.019C228.863 38.2007 229.215 38.0254 231.971 37.7916C236.602 37.3824 239.123 34.6354 236.661 32.6482C235.899 32.0637 236.074 31.7715 237.657 30.661C240.471 28.7907 240.94 27.6802 239.827 25.6929L238.83 23.998L241.703 22.1277C249.852 16.8674 246.92 12.8345 236.895 15.4062C225.111 18.4455 209.4 28.2062 207.641 33.5249L207.055 35.3368L203.068 33.9925C197.147 32.0053 191.401 32.4144 188.47 35.103C187.356 36.155 187.239 36.7395 187.532 38.8436C187.708 40.4217 187.591 41.7076 187.18 42.2336C186.77 42.7012 186.711 43.2272 187.004 43.4025C187.297 43.5779 187.825 43.0518 188.177 42.292C188.705 41.1815 189.291 40.8308 190.639 40.8308C192.867 40.8308 193.57 41.9413 196.795 50.4747C198.202 54.2153 199.902 57.8975 200.547 58.5989C201.251 59.3003 201.778 60.0601 201.778 60.2354C201.778 60.8199 189.701 65.9048 186.008 66.8984C180.966 68.1843 177.741 67.6582 174.869 65.0866C172.7 63.0993 171.879 61.5797 169.827 55.7934C168.478 51.9943 165.606 48.955 161.795 47.2601C160.095 46.5003 158.571 45.7989 158.453 45.7404C158.336 45.6235 158.864 44.3377 159.567 42.7596C160.329 41.24 161.971 37.2071 163.319 33.8171C165.371 28.5569 165.958 27.6217 167.423 27.0957C168.889 26.6281 169.241 26.745 170.472 28.1477C172.172 30.135 172.758 30.1934 171.703 28.1477C171.058 27.0372 170.999 26.0436 171.41 24.5824C172.113 22.0108 171.058 20.7834 167.071 19.4391C163.73 18.3286 160.329 18.6208 155.288 20.3158L152.122 21.4263L151.125 19.1468C149.777 16.1076 145.262 12.3085 138.755 8.68473C127.909 2.72309 118.001 -0.374631 114.425 1.08656C113.37 1.49569 112.666 2.25551 112.666 2.89843C112.666 4.35962 115.598 7.63267 118.119 8.97697C120.112 10.029 120.112 10.1459 119.291 11.4318C118.001 13.3605 118.763 15.5231 121.108 16.692C123.102 17.6272 123.102 17.6272 122.105 19.3222C121.167 20.9587 121.226 21.0756 122.809 22.4783C124.04 23.5304 125.154 23.8811 127.264 23.8811H130.02L129.785 25.8683C129.609 27.3879 129.844 28.0308 130.899 28.7907C131.661 29.3167 132.716 29.7258 133.244 29.7258C134.065 29.7258 134.241 30.2518 134.182 32.4729C134.065 35.2783 134.065 35.2783 136.058 35.4537C137.172 35.5706 139.224 35.2199 140.572 34.6939C145.907 32.6482 145.497 33.8171 138.11 41.24C128.73 50.65 125.271 57.0208 127.792 60.1185C128.73 61.229 129.199 61.3459 131.309 60.9952C135.824 60.2354 138.989 57.5468 142.038 51.7605C145.321 45.5066 145.732 45.0391 147.021 46.1496C149.601 48.2537 145.966 57.1377 140.279 62.7487C130.196 72.6263 118.236 74.4381 104.635 68.0089C99.1237 65.4372 94.9612 62.6318 83.9395 53.9815C72.0384 44.6884 68.1104 41.766 63.1858 38.9605C58.3785 36.155 51.2847 33.4665 47.2981 32.9989C40.732 32.1222 41.0251 32.2975 37.6248 27.9139C29.8275 17.9194 14.4674 7.0482 0.924797 1.96327C-2.59277 0.618976 -4.58607 0.151396 -3.94118 0.735871ZM126.033 10.2628C125.447 10.3797 124.509 10.3797 123.981 10.2628C123.395 10.0875 123.864 9.97057 124.978 9.97057C126.092 9.97057 126.561 10.0875 126.033 10.2628ZM130.254 17.4519C130.254 17.7441 129.375 18.0363 128.378 18.0363C126.912 18.0363 126.678 17.861 127.323 17.4519C128.495 16.692 130.254 16.692 130.254 17.4519ZM151.36 23.9395C151.36 25.1085 150.128 26.8034 149.308 26.8034C148.077 26.8034 148.194 24.6409 149.484 23.9395C150.773 23.1797 151.36 23.1213 151.36 23.9395ZM234.785 24.2902C234.374 24.4071 233.554 24.4071 233.026 24.2902C232.44 24.1149 232.791 23.998 233.729 23.998C234.726 23.998 235.136 24.1149 234.785 24.2902ZM140.807 25.9267C140.807 26.745 137.407 28.9076 136.938 28.3815C136.644 28.1477 140.045 25.05 140.572 25.05C140.69 25.05 140.807 25.4592 140.807 25.9267ZM231.678 31.4792C231.678 32.2391 230.505 32.2391 229.332 31.4792C228.629 31.0117 228.805 30.8948 230.095 30.8948C230.974 30.8948 231.678 31.1286 231.678 31.4792ZM41.5528 35.3952C42.0804 36.6226 42.608 39.1943 42.7839 41.1231C42.9598 44.1039 42.7839 44.9806 41.6114 46.6756C36.9213 53.6893 26.4858 51.8774 24.0821 43.6363C22.6751 38.6098 29.593 33.4665 38.0938 33.2911C40.4389 33.2327 40.6734 33.3496 41.5528 35.3952ZM210.455 39.6034C210.572 40.4217 210.338 40.8308 209.751 40.8308C208.755 40.8308 207.641 39.1359 207.641 37.5578C207.641 36.6811 207.758 36.6811 208.989 37.4409C209.693 37.9669 210.338 38.9021 210.455 39.6034ZM220.832 40.8308C221.77 41.766 222.297 42.5843 222.063 42.5843C221.066 42.5843 218.193 40.5386 218.193 39.8372C218.193 38.6098 219.014 38.9605 220.832 40.8308ZM155.17 46.0911C155.346 46.4418 154.877 46.6756 154.056 46.6756C153.236 46.6756 152.415 46.3834 152.239 46.0911C152.063 45.7404 152.532 45.5066 153.353 45.5066C154.174 45.5066 154.994 45.7404 155.17 46.0911ZM326.417 48.1368C334.684 50.4747 337.498 56.3779 332.69 61.4628C330.345 63.9176 328.293 64.7943 325.01 64.7943C317.682 64.7943 313.989 57.3715 317.389 49.5395L318.62 46.6171L321.024 46.9678C322.372 47.2016 324.776 47.7276 326.417 48.1368ZM206.468 60.1185C205.296 60.8783 203.947 60.8783 204.416 60.1185C204.592 59.7678 205.354 59.534 206.058 59.534C207.113 59.534 207.172 59.6509 206.468 60.1185Z" fill="black"/>
</svg>
