<svg width="150" height="150" viewBox="0 0 150 150" fill="none" xmlns="http://www.w3.org/2000/svg">
<path d="M63.5033 0.676467C45.9441 3.38234 28.8351 13.0333 17.6692 26.4724C2.76642 44.3763 -3.13167 67.8272 1.59581 90.5114C6.27827 113.06 22.1266 133.039 43.0175 142.87C64.9891 153.197 90.6525 152.25 111.679 140.39C118.117 136.737 123.61 132.452 129.058 126.815C151.119 103.951 156.297 69.8115 141.979 41.2645C130.994 19.347 110.238 4.2843 86.0601 0.676467C80.162 -0.225491 69.1312 -0.225491 63.5033 0.676467ZM87.0957 1.53333C98.1265 3.47253 107.266 7.12546 116.091 13.0333C132.84 24.2626 143.69 40.4528 147.968 60.6115C148.913 64.9409 149.048 66.7899 149.003 75.0428C149.003 83.1605 148.868 85.1899 148.013 89.2487C141.484 119.464 119.603 141.427 89.3919 147.966C85.2947 148.823 83.3587 148.958 74.9843 148.958C66.6099 148.958 64.6739 148.823 60.5768 147.966C45.1337 144.584 31.8517 137.323 21.6313 126.635C15.328 120.005 11.7711 114.864 7.71902 106.386C-0.160112 89.9251 -1.42077 70.037 4.29723 52.0429C8.12424 39.9567 16.0484 27.7352 25.3683 19.5274C37.7948 8.61369 52.4725 2.29999 69.3564 0.676467C72.508 0.360782 83.5838 0.901956 87.0957 1.53333Z" fill="black"/>
<path d="M126.716 32.1098C122.529 35.7176 120.998 43.5195 120.773 63.092C120.683 71.2096 120.728 71.4802 121.809 73.69C122.439 74.9076 123.16 75.99 123.43 76.0351C123.7 76.1253 123.43 75.1331 122.754 73.8253C121.584 71.4351 121.584 71.3449 121.674 61.9646C121.809 44.3313 123.385 36.0784 127.212 32.6509L128.202 31.749L127.932 47.7587C127.617 62.8665 127.122 73.0586 126.491 75.5841C126.311 76.1704 125.726 76.8919 125.141 77.0723C124.15 77.4782 124.06 77.7488 124.015 80.5449C124.015 82.2586 123.925 84.9194 123.835 86.5429C123.745 88.1664 123.61 95.9683 123.52 103.906C123.43 115.406 123.52 118.653 124.015 119.825C124.69 121.494 126.176 122.08 127.707 121.268C128.833 120.637 128.833 121.584 127.662 100.298C126.581 79.8233 126.491 77.2527 126.851 76.4861C127.077 76.0351 127.527 73.3292 127.887 70.3979C128.652 63.9489 129.058 31.4784 128.337 31.2078C128.112 31.1627 127.347 31.5235 126.716 32.1098ZM126.041 83.0253C126.806 97.8625 127.437 112.068 127.437 116.082C127.437 120.366 127.392 120.592 126.446 120.727C124.96 120.953 124.465 119.464 124.285 114.594L124.105 110.219L124.555 113.827C125.186 118.788 126.041 119.509 125.636 114.729C125.276 110.49 125.051 109.453 124.51 109.768C124.24 109.904 124.195 104.717 124.33 97.2762C124.555 83.0704 124.87 77.9743 125.411 77.9743C125.591 77.9743 125.906 80.2743 126.041 83.0253Z" fill="black"/>
<path d="M74.309 35.8527C71.3825 37.1154 68.3209 37.2958 63.6384 36.5292C59.6763 35.8527 58.2806 36.439 53.8683 40.7684C51.7071 42.7978 49.2759 44.8272 48.4204 45.2781C45.9891 46.5409 44.3233 47.8938 43.6929 49.1115C43.3327 49.7428 41.847 51.5467 40.3612 53.1252C36.7593 56.9585 36.129 58.4016 35.9489 63.0016C35.8588 65.482 35.4536 68.0075 34.6882 70.3525C33.3375 74.727 33.2925 76.7564 34.4631 81.6721C34.9584 83.7466 35.3636 86.8584 35.3636 88.6172C35.3636 94.7505 37.4347 99.1701 41.982 102.913C43.738 104.311 46.2593 106.747 47.5199 108.28C48.8256 109.858 50.4915 111.572 51.2119 112.113C52.6076 113.105 58.1905 115.09 61.2972 115.676C62.2427 115.811 64.9441 116.803 67.2853 117.75C71.1574 119.419 71.7427 119.554 74.9844 119.374C78.136 119.239 78.7213 119.058 80.8825 117.57C83.5839 115.721 86.1502 114.999 89.8872 114.954C93.1739 114.954 98.7568 113.511 101.008 112.068C103.709 110.354 105.781 107.513 108.437 101.831C109.788 98.9897 111.453 96.1936 112.129 95.5623C112.804 94.9309 113.84 93.4427 114.47 92.1799C115.596 90.0152 115.596 89.7446 115.281 84.9643C114.875 79.327 114.83 75.9898 115.055 69.8565C115.235 64.7153 114.65 62.5957 112.309 59.6193C110.193 57.0036 108.662 54.1624 107.672 51.0958C106.456 47.3526 104.565 44.8272 101.908 43.2938C100.603 42.5272 99.2521 41.8958 98.8919 41.8958C98.5317 41.8958 97.3161 41.3095 96.1905 40.588C94.8398 39.686 93.0388 39.0546 91.0128 38.739C88.1313 38.288 87.1407 37.8821 83.0886 35.5821C80.9275 34.3194 77.6858 34.4547 74.309 35.8527ZM84.7995 37.386C86.9156 38.5135 89.3919 39.4154 91.1929 39.686C92.8587 39.9566 94.7948 40.6331 95.7403 41.2644C96.6407 41.8958 98.0815 42.5723 98.8919 42.7978C102.944 43.9252 105.195 46.5409 107.311 52.584C108.257 55.1546 109.382 57.3644 110.598 58.8075C114.245 63.2271 114.875 65.6624 114.155 72.8329C113.75 77.0721 113.795 78.5153 114.38 82.078C115.506 88.527 114.875 91.0976 111.228 95.2015C110.193 96.3289 108.977 98.2681 108.527 99.4858C107.041 103.454 105.105 106.882 103.214 108.956C99.9725 112.519 97.091 113.511 87.2758 114.413C83.5388 114.774 82.9535 114.999 80.9275 116.443C76.7853 119.509 73.4085 119.554 66.61 116.623C64.6739 115.766 62.2427 114.909 61.2522 114.774C60.2616 114.594 57.8304 113.917 55.8493 113.286C52.6977 112.248 51.9773 111.797 49.9962 109.633C46.6195 105.935 43.873 103.229 41.4868 101.245C38.155 98.4936 36.6693 94.8858 36.219 88.3466C36.0389 85.5054 35.5437 82.0329 35.1835 80.68C34.193 77.1623 34.283 74.4565 35.5887 70.4427C36.3091 68.0977 36.7143 65.8879 36.7143 63.8134C36.7143 59.2585 37.4347 57.4546 40.5413 54.0722C42.0271 52.4487 43.828 50.3742 44.5034 49.4722C45.1787 48.5252 47.1147 46.9919 48.8256 45.9997C50.5816 44.9625 53.0128 42.9331 54.5436 41.3095C57.8754 37.6566 58.6858 37.2507 62.1076 37.4311C69.2664 37.7919 72.9133 37.5664 74.9844 36.5743C78.181 35.0409 80.6573 35.2664 84.7995 37.386Z" fill="black"/>
<path d="M97.9463 45.6389C97.9463 45.7291 98.9818 46.4507 100.197 47.2625C101.458 48.0742 102.719 49.2468 103.079 49.8781C103.394 50.5095 103.799 50.8252 103.934 50.5997C104.34 49.9683 103.079 48.3448 100.963 46.8115C99.4321 45.684 97.9463 45.1429 97.9463 45.6389Z" fill="black"/>
<path d="M69.6715 49.6077C54.5435 52.1332 43.7829 66.6547 45.7189 81.9429C46.3042 86.2723 46.7544 87.7154 48.9156 91.9997C52.3374 98.6291 58.0554 103.5 65.4843 106.07C68.861 107.288 69.9866 107.468 74.3089 107.468C78.271 107.468 79.9369 107.288 82.6383 106.431C95.1999 102.598 103.799 91.1879 103.799 78.4252C103.799 67.5567 97.1809 57.0038 87.5008 52.3136C81.6928 49.5175 75.7497 48.6156 69.6715 49.6077ZM83.4487 51.5018C92.2283 54.5234 98.8918 61.3332 101.683 70.0821C102.449 72.5625 102.674 74.3213 102.674 78.4252C102.674 82.5291 102.449 84.288 101.683 86.7683C97.361 100.478 83.1335 109.002 69.3563 106.206C58.8208 104.086 50.3563 96.284 47.2497 85.8664C46.1691 82.1684 46.1241 74.6821 47.2497 70.9841C49.636 62.9567 56.0293 55.5155 63.098 52.494C69.6264 49.6979 77.1904 49.3371 83.4487 51.5018Z" fill="black"/>
<path d="M76.7403 57.3644C75.3896 58.4016 73.6337 61.5134 73.6337 62.8663C73.6337 63.5879 73.2285 64.7153 72.7782 65.3016L71.9678 66.3839L71.6527 64.7153C71.4726 63.7683 71.0673 63.0918 70.7072 63.0918C69.8067 63.0918 68.9963 66.0683 69.2664 68.278L69.5365 70.1722L64.3138 71.48L59.0911 72.7427L59.4062 77.929C59.5863 80.7702 59.9015 83.4309 60.1716 83.7917C60.5768 84.5133 60.3067 75.9898 59.8565 74.3212C59.6764 73.7349 60.3967 73.3741 63.2783 72.5623C68.591 71.1643 74.9394 69.9918 80.5673 69.4506C88.2213 68.6839 87.4109 68.1879 87.7261 73.78C88.1313 80.4996 88.5365 83.3858 89.0768 83.3858C89.3469 83.3858 89.392 82.7094 89.2119 81.6721C89.0318 80.7702 88.8067 77.3878 88.6266 74.231C88.4014 69.6761 88.2213 68.3682 87.6811 68.1428C87.0507 67.9173 77.5057 68.729 74.8043 69.2702L73.4986 69.5408L75.1195 67.3761C76.0199 66.2035 76.6953 65.0761 76.5602 64.8957C76.4702 64.7153 77.0555 63.9036 77.9109 63.0918C80.2071 60.882 79.937 60.3408 77.1005 61.5134C76.3801 61.8291 76.3801 61.6938 77.2356 59.5291C77.7308 58.2212 78.1361 57.0938 78.1361 57.0036C78.1361 56.5977 77.4607 56.7781 76.7403 57.3644ZM75.6598 60.882C75.2545 61.6487 74.8043 62.1447 74.6692 62.0094C74.3991 61.7389 75.7048 59.484 76.11 59.484C76.2451 59.484 76.0199 60.1153 75.6598 60.882ZM76.3351 63.3624C75.9749 63.7232 75.2996 64.2643 74.8043 64.4898C74.219 64.8055 74.3991 64.5349 75.2095 63.8134C76.7403 62.5055 77.1455 62.3251 76.3351 63.3624ZM71.0673 68.0977C70.9323 68.8192 70.6621 69.2702 70.437 69.1349C69.9418 68.8643 69.8967 66.2035 70.347 65.0761C70.6171 64.3996 70.7072 64.4898 70.9773 65.5271C71.2024 66.2486 71.2024 67.3761 71.0673 68.0977ZM74.0389 67.5565C73.7237 68.0075 73.0934 68.5937 72.6432 68.9094C71.8778 69.4055 71.8328 69.3604 72.283 68.5486C72.6432 67.8271 73.8588 66.7898 74.4441 66.6996C74.4891 66.6996 74.309 67.0604 74.0389 67.5565Z" fill="black"/>
<path d="M68.9961 74.727C68.5909 75.178 67.9156 76.3506 67.5103 77.2976C67.1502 78.2898 66.0696 79.8682 65.1691 80.7702C63.2781 82.7545 63.4582 83.476 65.3942 81.8525C66.3397 81.0407 66.88 80.8604 67.1952 81.176C67.8705 81.8525 69.2663 81.0407 70.5269 79.2819C71.5174 77.8839 71.5625 77.8839 71.8776 78.831C72.3279 80.0486 73.3634 80.0486 75.0293 78.831C76.1549 78.0192 76.38 78.0192 76.6051 78.6055C76.9653 79.5074 77.8658 79.5074 78.5862 78.6506C78.9914 78.1996 79.6217 78.0192 80.3421 78.1545C81.0174 78.2898 81.8729 78.1094 82.3681 77.7486C83.4487 76.9368 83.0435 76.3957 81.8279 77.027C81.3326 77.2976 80.6122 77.3878 80.207 77.2525C79.8468 77.1172 79.0814 77.2976 78.5411 77.7035C77.6407 78.3349 77.5056 78.3349 77.0103 77.6584C76.5151 76.9819 76.335 77.027 74.8942 77.8839C72.8682 79.1466 72.7331 79.1015 72.7331 77.7486C72.7331 76.08 71.7876 76.3957 69.8065 78.7408C67.8255 81.0858 67.1051 80.6349 68.816 78.0643C70.1667 75.9898 70.662 74.5467 70.1217 74.1859C69.8966 74.0506 69.3563 74.2761 68.9961 74.727Z" fill="black"/>
<path d="M84.214 83.7016C83.4937 83.7918 80.0268 84.1525 76.56 84.5584C70.1217 85.2349 61.7923 86.7682 60.5766 87.4898C59.5411 88.0761 60.7117 88.031 64.4037 87.2192C66.1145 86.8584 67.6003 86.678 67.7354 86.8133C67.8705 86.9035 68.1856 87.7153 68.5008 88.5721C68.9961 90.0153 68.951 90.1506 68.1856 90.1506C67.1051 90.1506 67.1051 90.4211 68.3657 92.6309C69.6264 94.8407 71.9676 96.4643 73.9036 96.4643C74.7141 96.4643 75.5245 96.6446 75.6596 96.9152C75.7946 97.1407 76.1548 97.3662 76.3799 97.3662C76.6501 97.3662 76.47 96.6897 75.9747 95.878C75.2093 94.6152 75.1193 93.8486 75.2994 89.88L75.5695 85.3251L79.4415 85.0094C84.3941 84.6035 86.2401 84.2878 86.2401 83.7918C86.2401 83.5663 86.105 83.431 85.9249 83.431C85.6998 83.4761 84.9794 83.6114 84.214 83.7016ZM74.2638 87.2192C73.9036 88.0761 73.5885 89.2937 73.5434 89.9251C73.4084 91.5486 72.8681 91.3231 72.3278 89.3388C71.4273 86.2721 71.6975 85.6408 73.6785 85.6408H74.9392L74.2638 87.2192ZM70.9321 86.4976C70.9321 86.7231 71.0671 87.2643 71.2472 87.7153C71.5174 88.4368 71.4273 88.4368 70.3918 87.6251C69.7615 87.1741 69.3112 86.6329 69.4463 86.4074C69.7164 85.9565 70.9321 86.0015 70.9321 86.4976ZM72.2828 91.5937C72.2828 91.9094 71.5624 91.4133 70.707 90.5113C69.8515 89.5643 69.1311 88.5721 69.1311 88.2564C69.1311 87.9408 69.8515 88.4368 70.707 89.3388C71.5624 90.2858 72.2828 91.278 72.2828 91.5937ZM74.3989 91.8192C74.2638 92.2702 74.1738 91.9094 74.1738 91.0525C74.1738 90.1957 74.2638 89.8349 74.3989 90.2407C74.4889 90.6917 74.4889 91.4133 74.3989 91.8192ZM72.643 93.578C74.624 95.3819 74.669 95.5172 73.6335 95.5172C72.1027 95.5172 70.5719 94.6152 69.5363 93.0368C69.0861 92.3153 68.6809 91.5937 68.6809 91.4133C68.6809 90.6917 70.707 91.7741 72.643 93.578Z" fill="black"/>
<path d="M87.2308 98.4486C85.2047 101.064 83.5388 103.274 83.5388 103.409C83.5388 104.311 84.7094 103.139 87.636 99.2603C91.553 94.2094 91.8232 93.7584 91.2829 93.7584C91.1028 93.7584 89.2568 95.878 87.2308 98.4486Z" fill="black"/>
<path d="M84.0342 98.8995C82.1432 101.47 81.9181 101.876 82.5484 101.876C83.0887 101.876 86.4205 96.9603 86.1053 96.6446C85.9702 96.5093 85.0247 97.5015 84.0342 98.8995Z" fill="black"/>
<path d="M90.3373 97.6369C89.0316 99.3055 89.1667 100.117 90.5174 98.5839C91.553 97.4565 91.9582 96.4643 91.4629 96.4643C91.3279 96.4643 90.8326 97.0055 90.3373 97.6369Z" fill="black"/>
<path d="M43.1975 54.4332C41.0364 56.4175 39.7757 58.041 39.4155 59.1685C38.8752 60.9273 39.0553 62.6861 39.6406 61.0626C39.8207 60.5665 40.1809 59.5744 40.4511 58.8077C40.7212 58.0861 42.3871 56.1018 44.143 54.4332C45.8539 52.7646 47.1146 51.3665 46.8444 51.3665C46.6193 51.3665 44.9534 52.7646 43.1975 54.4332Z" fill="black"/>
<path d="M111.769 68.278C111.904 69.18 111.679 71.1643 111.228 72.9231C110.418 75.9447 110.508 78.2898 111.454 79.778C112.129 80.9054 112.309 80.0937 111.769 78.1094C111.364 76.576 111.409 75.5839 112.039 72.9231C112.489 70.9839 112.714 68.9996 112.534 68.1427C112.129 66.2035 111.454 66.2937 111.769 68.278Z" fill="black"/>
<path d="M37.1646 84.9193C37.1646 85.0095 37.4347 85.7761 37.7949 86.5879C38.1551 87.4447 38.5603 89.2487 38.7404 90.6016C39.1006 93.7584 39.3707 94.6604 39.956 94.6604C40.1811 94.6604 40.2712 94.2996 40.1361 93.8937C39.956 93.4428 39.6409 91.7741 39.4608 90.1506C39.0555 87.1291 38.2001 84.7389 37.5247 84.7389C37.3446 84.7389 37.1646 84.8291 37.1646 84.9193Z" fill="black"/>
<path d="M103.935 102.011C103.439 102.553 102.854 103.5 102.674 104.131C102.269 105.439 100.963 107.468 99.3871 109.182C98.7568 109.858 98.3516 110.535 98.4867 110.67C98.8919 111.121 102.764 106.476 103.124 105.168C103.259 104.492 103.844 103.364 104.34 102.688C105.465 101.064 105.195 100.613 103.935 102.011Z" fill="black"/>
<path d="M67.7805 110.625C66.6999 112.023 65.9796 113.286 66.1597 113.466C66.4298 113.782 66.835 113.331 68.9511 110.309C70.8871 107.604 69.8516 107.874 67.7805 110.625Z" fill="black"/>
<path d="M65.6196 109.994C64.8091 111.301 64.9442 111.617 65.9797 110.67C66.8802 109.858 67.1504 109.092 66.52 109.092C66.3399 109.092 65.9347 109.498 65.6196 109.994Z" fill="black"/>
<path d="M22.0366 38.3333C21.8565 38.694 21.5413 43.1136 21.4062 48.2097L21.0911 57.4547L21.046 48.4352C20.956 39.3705 20.6408 37.5215 19.5152 38.6489C19.065 39.0999 18.9299 41.9862 18.9299 51.0508C18.9299 63.8135 18.9299 63.6782 21.5863 67.2861C22.4868 68.5037 22.5318 69.1802 22.6669 82.1684C22.802 93.8036 22.6669 97.186 21.8114 105.394C21.001 113.286 20.911 115.27 21.3612 116.758C22.0816 119.149 23.6124 120.186 25.5934 119.6C28.7001 118.743 29.0602 115.405 27.5294 101.425C26.764 94.8409 26.2238 86.7684 26.0437 80.139L25.7735 69.4508L27.5294 66.6096L29.2854 63.7684L29.1953 53.3959C29.0602 42.3921 28.7901 38.2882 28.1598 38.2882C27.7546 38.2882 27.5745 39.0548 26.8991 44.3764L26.4939 47.5332L26.4039 42.6626C26.3588 37.8372 25.9086 36.6195 25.0081 39.0097C24.738 39.6411 24.5579 43.9254 24.5579 48.5705C24.5579 53.7567 24.3778 56.7783 24.1527 56.5077C23.9276 56.2822 23.6574 52.2685 23.6124 47.6234C23.5223 42.0764 23.2972 38.8744 22.9821 38.4234C22.5318 37.7921 22.3968 37.7921 22.0366 38.3333ZM20.8209 58.1763C22.0366 59.394 22.3067 57.9959 22.3968 49.6528L22.4868 41.2195L22.7119 49.1116C22.9821 57.0038 23.1622 58.1312 24.2877 58.1312C25.1882 58.1312 25.5484 55.4253 25.1882 51.7724C25.0081 49.8332 25.0531 48.6607 25.3233 48.6607C25.5934 48.6607 25.8185 50.4195 25.8636 52.7646C25.9536 57.3645 26.1787 58.2214 27.1242 57.0038C27.5294 56.4175 27.7095 54.3881 27.7546 50.0587L27.8446 43.9254L28.2498 48.8861C28.4749 51.592 28.565 56.0567 28.52 58.8077C28.3849 63.6782 28.3399 63.8135 26.8091 66.0233L25.2332 68.2782L25.3233 77.9743C25.4133 87.986 26.1337 99.531 26.8541 103.455C27.0792 104.672 27.3944 107.829 27.5745 110.445C27.7546 114.188 27.6645 115.541 27.1242 116.849C26.2238 119.013 24.4678 119.6 23.0721 118.156C22.2167 117.3 22.0816 116.713 22.1266 113.241C22.1716 111.076 22.5318 106.07 22.9821 102.102C23.9726 92.9468 23.7024 69.7214 22.5318 67.692C19.4252 62.0547 19.6053 63.0018 19.6953 50.9156L19.7854 39.8666L20.0555 48.7509C20.1906 54.6136 20.4607 57.8155 20.8209 58.1763ZM26.674 49.2018C26.5389 49.5175 26.4489 49.292 26.4489 48.6607C26.4489 48.0293 26.5389 47.8038 26.674 48.0744C26.764 48.3901 26.764 48.9312 26.674 49.2018Z" fill="black"/>
<path d="M25.8186 63.4527C25.1883 64.7606 24.9182 65.7527 25.1883 65.6625C25.8636 65.4821 27.3945 62.3253 27.1243 61.6037C27.0343 61.3331 26.449 62.1449 25.8186 63.4527Z" fill="black"/>
<path d="M22.9821 108.596C22.6669 111.797 23.0271 117.209 23.5674 117.209C23.9276 117.209 23.8375 105.98 23.5224 105.619C23.3873 105.529 23.1622 106.882 22.9821 108.596Z" fill="black"/>
<path d="M126.176 43.1135C125.996 45.7292 125.906 50.1488 125.906 52.8998C125.996 57.8154 125.996 57.8154 126.311 54.7488C126.852 49.8331 127.212 38.2881 126.806 38.2881C126.626 38.2881 126.311 40.4527 126.176 43.1135Z" fill="black"/>
</svg>
