<svg width="150" height="150" viewBox="0 0 150 150" fill="none" xmlns="http://www.w3.org/2000/svg">
<path d="M66.8923 0.256269C48.7759 2.2896 30.1187 12.0496 18.6269 25.5148C-1.15691 48.6496 -5.52828 80.0533 7.18025 107.21C17.2299 128.627 36.518 143.719 60.5831 149.006C64.4588 149.864 66.4867 150 75.0042 150C83.6117 150 85.5495 149.864 89.6505 149.006C119.89 142.409 142.107 120.313 148.732 90.1748C149.408 87.0118 149.723 83.623 149.903 77.297C150.129 69.7963 149.994 67.9889 149.137 62.8378C143.774 31.0726 119.304 6.44664 87.6226 0.934047C82.7104 0.0755282 71.8045 -0.285953 66.8923 0.256269ZM90.7772 2.24442C97.7624 3.91627 100.827 4.95553 107.001 7.89257C131.246 19.4148 146.749 41.9622 149.227 69.2992C150.129 79.1496 148.957 88.503 145.487 98.9859C139.628 116.699 126.92 131.745 110.155 140.827C99.4748 146.656 87.8479 149.548 75.2295 149.548C65.1348 149.548 56.7075 147.967 47.5591 144.352C23.2687 134.727 5.37762 112.135 1.54704 86.2889C-3.54539 52.0385 15.4273 18.8274 47.469 5.9496C57.4285 1.92812 64.6391 0.662936 76.8068 0.888862C84.5581 1.0696 86.4959 1.25034 90.7772 2.24442Z" fill="black"/>
<path d="M43.0978 28.1356C42.6471 28.8586 43.278 31.5697 43.7737 31.0726C44.0441 30.8015 44.0441 30.0334 43.8188 29.1297C43.5935 28.2711 43.278 27.8645 43.0978 28.1356Z" fill="black"/>
<path d="M51.1644 28.9942C50.894 30.0786 51.0743 30.9371 51.5249 30.4853C52.0206 30.0334 52.291 27.8194 51.8854 27.8194C51.6601 27.8194 51.2996 28.3616 51.1644 28.9942Z" fill="black"/>
<path d="M34.7154 30.9822C34.7154 31.7052 35.7069 33.2415 36.2026 33.2415C36.6983 33.2415 36.473 32.6089 35.5717 31.434C34.9858 30.7111 34.6704 30.5303 34.7154 30.9822Z" fill="black"/>
<path d="M43.4582 35.4556C35.9772 37.7601 34.8506 38.4378 33.093 41.6008C32.2368 43.1371 31.5157 44.7638 31.5157 45.1704C31.5157 45.6223 32.9578 47.5652 34.7605 49.5082C36.5631 51.4964 38.1404 53.4845 38.3207 53.9815C38.5911 54.6593 38.1404 55.2467 35.9772 56.9186C33.1832 59.0875 29.8934 63.1993 28.1358 66.6786C24.801 73.2304 23.9898 82.1771 26.0177 88.8193C28.3161 96.0941 32.1016 101.471 37.9601 105.583C43.9989 109.83 51.5249 111.728 58.8256 110.915C66.3065 110.102 71.5792 107.436 77.3926 101.607L81.5838 97.4045L83.3864 98.3534C86.7212 100.025 91.8137 101.11 96.4104 101.11C109.705 101.11 121.467 92.7504 125.748 80.2341C126.424 78.1556 126.785 75.806 126.965 72.2364C127.235 66.0008 126.379 61.8438 123.81 56.6023C120.115 49.1467 111.823 42.6401 103.621 40.6971C99.7452 39.7934 92.5347 39.8386 88.7943 40.7423C82.8005 42.2334 76.3111 46.2549 72.7959 50.683C71.8045 51.903 70.9032 53.0327 70.7229 53.2586C70.5877 53.4393 68.9654 52.9875 67.2078 52.2645C63.5575 50.7282 59.9522 49.9601 56.6624 49.9601C53.643 49.9601 53.2825 49.1015 53.9585 43.4534C54.7246 37.3082 54.7697 37.4889 52.3812 35.7267C49.7674 33.8289 48.821 33.7838 43.4582 35.4556ZM49.1815 37.3986C49.0914 38.7089 48.9111 39.8838 48.821 39.9741C48.5956 40.2001 44.1341 36.8112 44.1341 36.4045C44.1341 35.9978 46.9282 35.1845 48.4605 35.0941C49.3167 35.0489 49.4068 35.2297 49.1815 37.3986ZM52.0206 36.5401L53.5979 37.6245L52.3361 38.483C49.9927 40.2452 49.9927 40.2452 49.9927 37.8052C49.9927 36.5401 50.0828 35.5008 50.2631 35.5008C50.3983 35.5008 51.1644 35.9526 52.0206 36.5401ZM45.6664 38.8897C47.3789 40.2001 48.0999 40.9682 47.6943 41.1489C44.8101 42.2334 38.0503 44.4926 37.9601 44.3571C37.9151 44.3119 38.2305 42.8208 38.7263 41.1038C40.1233 36.1786 41.5203 35.7719 45.6664 38.8897ZM38.0503 40.6519C37.6447 42.0526 37.2391 43.1823 37.149 43.1823C36.8335 43.1823 35.5717 40.5615 35.5717 39.8838C35.5717 39.3415 38.2756 37.6697 38.6361 37.986C38.7263 38.0764 38.4559 39.2512 38.0503 40.6519ZM53.5979 39.8386C53.3275 40.4712 53.1473 41.7364 53.1473 42.6401C53.1473 43.5438 53.0121 45.0801 52.8769 45.9838C52.6065 47.5652 52.4713 47.7008 51.0743 47.7008H49.542V44.6282V41.5556L51.4799 40.1097C53.8233 38.3926 54.1387 38.3475 53.5979 39.8386ZM36.0223 44.6282C35.2111 44.9897 32.4171 45.0801 32.4171 44.7638C32.4171 44.4023 33.8141 41.6912 34.3098 41.0586C34.6703 40.6519 35.0309 41.0134 35.7519 42.4141C36.5631 44.0408 36.6082 44.3571 36.0223 44.6282ZM103.846 41.646C113.986 44.1312 122.684 52.8067 125.478 63.2897C126.424 66.9497 126.424 74.2245 125.478 77.9749C123.044 87.509 115.293 95.7327 105.784 98.9408C100.151 100.839 91.8587 100.658 86.2255 98.5341C75.4098 94.4675 68.2894 85.4756 66.6219 73.8178C66.1262 70.6097 66.1713 69.4349 66.8473 65.8652C67.6134 61.663 68.3344 59.4489 68.9654 59.4489C69.1456 59.4489 69.9568 59.9912 70.813 60.6689C71.6242 61.3467 72.3453 61.9341 72.3903 61.9341C72.4805 61.9793 72.2101 63.4252 71.8496 65.1423C70.6328 70.926 71.3538 76.303 74.1479 81.9964C77.3926 88.6386 84.9186 94.3319 92.1291 95.6423C100.917 97.269 110.651 93.609 116.194 86.5601C123.179 77.7038 123.495 64.826 116.915 55.6082C109.254 44.8089 94.112 41.7364 83.116 48.7852C80.5472 50.4571 77.3926 53.3941 75.9055 55.563L74.9591 56.8734L73.0663 55.5178L71.1736 54.1171L72.7509 52.0838C79.691 42.9564 92.1291 38.7993 103.846 41.646ZM48.6407 44.9445V48.1075L46.2072 48.8756L43.7736 49.6438L41.5654 47.746C40.3937 46.6615 39.4022 45.5771 39.4022 45.306C39.4022 44.9445 46.793 42.0978 48.3253 41.8719C48.5055 41.8267 48.6407 43.2275 48.6407 44.9445ZM40.3036 47.7008C41.5203 48.9208 42.4216 50.0052 42.2864 50.0956C42.1963 50.186 41.295 50.7282 40.3486 51.3156L38.546 52.4001L35.7069 49.2371L32.8226 46.1193L34.0845 45.8482C37.2391 45.1252 38.0052 45.3512 40.3036 47.7008ZM102.494 46.5712C110.741 48.7401 117.907 55.9245 120.07 64.1934C121.106 68.3052 120.971 74.089 119.664 78.2008C118.312 82.4934 116.465 85.3852 112.904 88.6838C105.829 95.326 95.7795 96.9527 86.8114 92.9764C84.5581 91.9823 84.1976 91.7112 84.468 90.8978C87.938 78.9238 85.5946 67.9889 77.618 59.4038L75.6801 57.2801L77.4377 55.066C80.6374 50.9993 85.2791 47.9267 90.1462 46.6164C93.391 45.7578 99.2044 45.7126 102.494 46.5712ZM53.2374 48.9208C53.3726 49.5986 52.7417 49.8697 49.6322 50.5023C47.5591 50.9089 44.3595 51.9934 42.5118 52.8519C39.5825 54.2527 39.1769 54.343 39.1769 53.6201C39.1769 52.1741 47.469 48.7852 52.5614 48.1978C52.8318 48.1978 53.1473 48.5141 53.2374 48.9208ZM63.0617 51.8127C68.4696 53.3038 72.3002 55.563 76.4012 59.6749C82.2147 65.4586 85.1439 72.3719 85.1439 80.3697C85.1439 84.2556 84.1074 90.4008 83.3413 90.8527C83.116 90.9882 82.3499 90.5815 81.6288 89.949L80.3219 88.8193L80.9078 86.2438C84.1074 72.6882 74.193 57.5512 60.4479 54.8852C56.7525 54.2075 50.9841 54.6141 47.5141 55.7889C43.8187 57.0993 39.0868 60.443 36.6532 63.4252C24.801 77.9749 31.4707 100.116 49.3167 105.628C51.57 106.351 53.643 106.622 56.5272 106.622C63.9631 106.622 69.8216 103.956 75.0492 98.1275L77.8433 95.0549L79.015 95.823C80.4571 96.7719 80.4571 96.9527 79.1953 98.5793C74.6436 104.679 67.2078 108.927 58.8256 110.147C55.4006 110.644 54.5443 110.599 50.3081 109.74C43.4131 108.385 39.5374 106.306 34.6253 101.471C31.4256 98.3082 30.3891 96.9075 28.9019 93.7897C26.4684 88.6386 25.4769 83.9393 25.7924 78.9238C26.5585 66.2267 35.0309 55.6082 47.2887 51.903C51.8854 50.5475 58.3749 50.5023 63.0617 51.8127ZM61.4844 56.0149C62.7463 56.3764 64.6841 57.0541 65.8108 57.5512L67.8838 58.4549L67.0275 61.0304C63.5575 71.3778 66.2614 83.1712 73.9226 91.3045L76.942 94.4675L75.0492 96.8623C67.343 106.532 53.5529 108.746 43.368 101.923C40.1684 99.7541 39.4022 99.0764 37.2842 96.5008C30.7496 88.4127 29.7131 76.5741 34.8055 67.5823C37.7348 62.386 43.7736 57.6415 49.542 56.0149C52.291 55.2467 58.7354 55.2467 61.4844 56.0149ZM77.2574 68.2601C79.2854 71.7393 80.2768 75.6252 80.367 80.2341C80.367 82.5838 80.2318 85.3401 80.0065 86.3341L79.6459 88.1415L77.8884 86.1986C74.1028 81.906 71.7594 74.7215 72.2101 68.7571C72.3453 66.9949 72.6607 64.9615 72.9311 64.2386L73.4269 62.9734L74.8239 64.6904C75.59 65.6845 76.6716 67.266 77.2574 68.2601Z" fill="black"/>
<path d="M95.509 42.2784C95.509 42.5495 96.861 42.7303 98.7087 42.7303C102.089 42.7303 107.181 44.131 110.02 45.8932C111.643 46.8873 112.183 47.0229 112.183 46.3903C112.183 45.8481 107.046 43.4081 104.117 42.5495C101.368 41.7362 95.509 41.5555 95.509 42.2784Z" fill="black"/>
<path d="M123.855 77.6132C123.179 80.5051 121.963 83.4873 120.746 85.2043C119.484 86.9666 119.619 87.9606 120.926 86.5147C122.143 85.114 124.577 79.4658 125.027 76.9354C125.523 74.3147 124.531 74.9021 123.855 77.6132Z" fill="black"/>
<path d="M68.019 77.3874C68.0641 78.7882 70.5878 84.7074 71.8496 86.3341C73.6973 88.7741 74.1029 88.1867 72.3454 85.6111C71.4891 84.3459 70.3174 81.8156 69.7315 79.963C68.7401 76.8 68.019 75.6704 68.019 77.3874Z" fill="black"/>
<path d="M77.032 62.3858C77.032 62.5214 77.708 63.5155 78.5642 64.5999C79.3754 65.6843 80.457 67.4918 80.9076 68.6666C81.7188 70.6547 82.4399 71.3777 82.4399 70.1577C82.3948 68.5762 78.429 62.1599 77.4826 62.1599C77.2122 62.1599 77.032 62.2503 77.032 62.3858Z" fill="black"/>
<path d="M29.2173 69.254C27.5048 73.2754 26.243 82.9451 27.4598 82.9451C27.7302 82.9451 27.9104 81.6347 27.9104 79.8725C27.9104 76.6191 29.1723 70.8806 30.389 68.531C30.7946 67.6725 30.8848 67.1303 30.6144 67.1303C30.344 67.1303 29.7131 68.0791 29.2173 69.254Z" fill="black"/>
<path d="M72.5705 103.098C71.489 103.956 69.2357 105.312 67.6133 106.08C64.0531 107.797 64.1883 107.707 64.5488 108.113C65.0446 108.565 72.2551 104.725 73.6521 103.233C75.4547 101.381 74.914 101.29 72.5705 103.098Z" fill="black"/>
<path d="M57.6539 35.2749C57.068 35.9075 56.7525 36.5401 56.8877 36.7208C57.2483 37.0371 59.4565 35.1393 59.4565 34.5068C59.4565 33.829 58.7354 34.1453 57.6539 35.2749Z" fill="black"/>
<path d="M28.3611 37.3533C28.3611 37.8955 29.668 39.0703 30.2989 39.1155C31.02 39.1155 30.5693 38.3021 29.4877 37.5792C28.7667 37.0821 28.3611 37.037 28.3611 37.3533Z" fill="black"/>
<path d="M25.9275 45.3961C26.288 45.8028 27.9555 46.0739 29.037 45.9384C29.3074 45.8932 29.1722 45.6673 28.8117 45.4413C27.9555 44.8539 25.3416 44.8539 25.9275 45.3961Z" fill="black"/>
</svg>
